<svg width="40" height="40" viewBox="0 0 40 40" fill="none" xmlns="http://www.w3.org/2000/svg">
<rect x="0.5" y="0.5" width="39" height="39" rx="19.5" stroke="#CBD5E1"/>
<path d="M20 10.6719C20.2859 10.6719 20.5605 10.7851 20.7627 10.9873C20.9649 11.1895 21.0781 11.4641 21.0781 11.75V18.9219H28.25C28.5359 18.9219 28.8105 19.0351 29.0127 19.2373C29.2149 19.4395 29.3281 19.7141 29.3281 20C29.3281 20.2859 29.2149 20.5605 29.0127 20.7627C28.8105 20.9649 28.5359 21.0781 28.25 21.0781H21.0781V28.25C21.0781 28.5359 20.9649 28.8105 20.7627 29.0127C20.5605 29.2149 20.2859 29.3281 20 29.3281C19.7141 29.3281 19.4395 29.2149 19.2373 29.0127C19.0351 28.8105 18.9219 28.5359 18.9219 28.25V21.0781H11.75C11.4641 21.0781 11.1895 20.9649 10.9873 20.7627C10.7851 20.5605 10.6719 20.2859 10.6719 20C10.6719 19.7141 10.7851 19.4395 10.9873 19.2373C11.1895 19.0351 11.4641 18.9219 11.75 18.9219H18.9219V11.75C18.9219 11.4641 19.0351 11.1895 19.2373 10.9873C19.4395 10.7851 19.7141 10.6719 20 10.6719Z" fill="#475569" stroke="#475569" stroke-width="0.09375"/>
</svg>
