<svg width="50" height="50" viewBox="0 0 50 50" fill="none" xmlns="http://www.w3.org/2000/svg">
<g opacity="0.2">
<rect opacity="0.01" width="50" height="50" fill="black"/>
<path fill-rule="evenodd" clip-rule="evenodd" d="M4.16699 25C4.16699 13.494 13.4944 4.16663 25.0003 4.16663C30.5257 4.16663 35.8247 6.36156 39.7317 10.2686C43.6387 14.1756 45.8337 19.4746 45.8337 25C45.8337 36.5059 36.5063 45.8333 25.0003 45.8333C13.4944 45.8333 4.16699 36.5059 4.16699 25ZM8.33374 24.9999C8.33374 34.2047 15.7957 41.6666 25.0004 41.6666C29.4207 41.6666 33.6599 39.9107 36.7855 36.7851C39.9111 33.6595 41.6671 29.4202 41.6671 24.9999C41.6671 15.7952 34.2052 8.33328 25.0004 8.33328C15.7957 8.33328 8.33374 15.7952 8.33374 24.9999Z" fill="black"/>
<path d="M25.0003 35.4167C26.1509 35.4167 27.0837 34.4839 27.0837 33.3333C27.0837 32.1827 26.1509 31.25 25.0003 31.25C23.8497 31.25 22.917 32.1827 22.917 33.3333C22.917 34.4839 23.8497 35.4167 25.0003 35.4167Z" fill="black"/>
<path d="M25.0003 14.5834C23.8497 14.5834 22.917 15.5161 22.917 16.6667V27.0834C22.917 28.234 23.8497 29.1667 25.0003 29.1667C26.1509 29.1667 27.0837 28.234 27.0837 27.0834V16.6667C27.0837 15.5161 26.1509 14.5834 25.0003 14.5834Z" fill="black"/>
</g>
</svg>
