<svg width="40" height="40" viewBox="0 0 40 40" fill="none" xmlns="http://www.w3.org/2000/svg">
<path d="M19.5593 24.5219C21.1297 23.2019 22.2561 21.4309 22.7858 19.449C23.3155 17.4671 23.2229 15.3702 22.5204 13.4428C21.8179 11.5153 20.5397 9.85053 18.859 8.67421C17.1782 7.49789 15.1764 6.86694 13.1249 6.86694C11.0735 6.86694 9.07163 7.49789 7.39091 8.67421C5.71019 9.85053 4.43193 11.5153 3.72946 13.4428C3.027 15.3702 2.93434 17.4671 3.46403 19.449C3.99373 21.4309 5.12016 23.2019 6.69056 24.5219C4.23835 25.6307 2.11324 27.3528 0.520251 29.5219C0.226027 29.9229 0.103123 30.4243 0.178577 30.9158C0.254031 31.4074 0.521662 31.8488 0.922595 32.143C1.32353 32.4372 1.82492 32.5602 2.31647 32.4847C2.80802 32.4092 3.24946 32.1416 3.54369 31.7407C4.64641 30.2346 6.08863 29.0098 7.75333 28.1654C9.41804 27.3211 11.2583 26.881 13.1249 26.881C14.9915 26.881 16.8318 27.3211 18.4965 28.1654C20.1612 29.0098 21.6035 30.2346 22.7062 31.7407C23.0004 32.1418 23.4419 32.4097 23.9336 32.4853C24.4253 32.5609 24.9269 32.438 25.3281 32.1438C25.7292 31.8496 25.997 31.4081 26.0726 30.9164C26.1482 30.4247 26.0254 29.9231 25.7312 29.5219C24.1372 27.3531 22.0117 25.6311 19.5593 24.5219ZM6.87494 16.8751C6.87494 15.6389 7.24149 14.4305 7.92825 13.4027C8.61501 12.3749 9.59113 11.5739 10.7332 11.1008C11.8752 10.6278 13.1319 10.504 14.3443 10.7451C15.5566 10.9863 16.6703 11.5816 17.5444 12.4556C18.4184 13.3297 19.0137 14.4434 19.2548 15.6557C19.496 16.8681 19.3722 18.1248 18.8992 19.2668C18.4261 20.4089 17.6251 21.385 16.5973 22.0717C15.5694 22.7585 14.3611 23.1251 13.1249 23.1251C11.4673 23.1251 9.87762 22.4666 8.70552 21.2945C7.53342 20.1224 6.87494 18.5327 6.87494 16.8751ZM39.0781 32.136C38.8796 32.2819 38.6543 32.3872 38.4151 32.4459C38.1758 32.5047 37.9274 32.5157 37.6839 32.4784C37.4404 32.4412 37.2067 32.3563 36.996 32.2286C36.7854 32.1009 36.6019 31.933 36.4562 31.7344C35.3507 30.2313 33.9079 29.0085 32.2439 28.1645C30.5798 27.3205 28.7408 26.8789 26.8749 26.8751C26.3777 26.8751 25.9007 26.6775 25.5491 26.3259C25.1975 25.9742 24.9999 25.4973 24.9999 25.0001C24.9999 24.5028 25.1975 24.0259 25.5491 23.6742C25.9007 23.3226 26.3777 23.1251 26.8749 23.1251C27.7633 23.1235 28.6411 22.9325 29.4498 22.565C30.2585 22.1974 30.9796 21.6617 31.565 20.9935C32.1504 20.3253 32.5866 19.5399 32.8445 18.6899C33.1025 17.8398 33.1762 16.9445 33.0609 16.0637C32.9456 15.1829 32.6438 14.3368 32.1757 13.5817C31.7076 12.8267 31.084 12.1802 30.3463 11.6852C29.6086 11.1902 28.7739 10.8582 27.8978 10.7112C27.0217 10.5642 26.1244 10.6057 25.2656 10.8329C25.0257 10.9023 24.7744 10.923 24.5264 10.894C24.2784 10.865 24.0387 10.7867 23.8214 10.6637C23.604 10.5408 23.4134 10.3757 23.2608 10.1781C23.1081 9.98052 22.9964 9.75442 22.9323 9.5131C22.8682 9.27177 22.853 9.02007 22.8874 8.77276C22.9219 8.52546 23.0055 8.28753 23.1332 8.07295C23.2608 7.85837 23.4301 7.67145 23.631 7.52316C23.8319 7.37488 24.0604 7.26821 24.3031 7.20943C26.4991 6.62755 28.8278 6.81077 30.9058 7.72892C32.9838 8.64706 34.6873 10.2454 35.7357 12.2608C36.7842 14.2762 37.1151 16.5886 36.6741 18.8172C36.2331 21.0458 35.0464 23.0578 33.3093 24.5219C35.7615 25.6307 37.8866 27.3528 39.4796 29.5219C39.7717 29.9223 39.8935 30.422 39.8182 30.9118C39.743 31.4017 39.4769 31.8418 39.0781 32.136Z" fill="#94A3B8"/>
</svg>
